<svg width="14" height="18" viewBox="0 0 14 18" fill="none" xmlns="http://www.w3.org/2000/svg">
<path d="M3.88793 12.4742C3.59374 12.1801 3.74709 12.263 3.03752 12.0731C2.71557 11.9868 2.43255 11.821 2.17661 11.6223L0.640667 15.3874C0.492049 15.752 0.76965 16.148 1.16303 16.1331L2.94679 16.065L4.17365 17.3607C4.44448 17.6464 4.91979 17.5574 5.06841 17.1928L6.8305 12.8733C6.46352 13.0777 6.05626 13.1975 5.63512 13.1975C4.97497 13.1975 4.35477 12.9406 3.88793 12.4742ZM13.5593 15.3874L12.0233 11.6223C11.7674 11.8213 11.4844 11.9868 11.1624 12.0731C10.4491 12.264 10.6055 12.1808 10.312 12.4742C9.84518 12.9406 9.22464 13.1975 8.56449 13.1975C8.14335 13.1975 7.73609 13.0774 7.36911 12.8733L9.13121 17.1928C9.27982 17.5574 9.75547 17.6464 10.026 17.3607L11.2532 16.065L13.0369 16.1331C13.4303 16.148 13.7079 15.7516 13.5593 15.3874ZM9.5036 11.7083C10.0209 11.1819 10.0801 11.2273 10.8168 11.0266C11.287 10.8983 11.6547 10.5243 11.7806 10.0457C12.0338 9.08444 11.9682 9.20054 12.6591 8.4972C13.0034 8.14688 13.1378 7.63613 13.0119 7.15753C12.759 6.19696 12.7586 6.33099 13.0119 5.3694C13.1378 4.8908 13.0034 4.38005 12.6591 4.02973C11.9682 3.32639 12.0338 3.44215 11.7806 2.48123C11.6547 2.00264 11.287 1.62863 10.8168 1.50035C9.87294 1.24277 9.98669 1.31013 9.29506 0.606449C8.95076 0.256133 8.44871 0.119052 7.97848 0.247332C7.03498 0.50457 7.16667 0.504908 6.22147 0.247332C5.75124 0.119052 5.24919 0.255794 4.90489 0.606449C4.21394 1.30979 4.32769 1.24277 3.3835 1.50035C2.91327 1.62863 2.54562 2.00264 2.41969 2.48123C2.1668 3.44215 2.23214 3.32639 1.54118 4.02973C1.19689 4.38005 1.06215 4.8908 1.18842 5.3694C1.44131 6.3293 1.44165 6.19526 1.18842 7.15719C1.06249 7.63579 1.19689 8.14654 1.54118 8.4972C2.23214 9.20054 2.16646 9.08444 2.41969 10.0457C2.54562 10.5243 2.91327 10.8983 3.3835 11.0266C4.14115 11.233 4.19769 11.2006 4.69635 11.7083C5.14424 12.1642 5.84197 12.2458 6.38024 11.9052C6.59549 11.7686 6.84519 11.6961 7.10015 11.6961C7.35511 11.6961 7.6048 11.7686 7.82005 11.9052C8.35798 12.2458 9.05571 12.1642 9.5036 11.7083ZM3.90621 6.156C3.90621 4.36109 5.33619 2.90601 7.09998 2.90601C8.86376 2.90601 10.2937 4.36109 10.2937 6.156C10.2937 7.95091 8.86376 9.40599 7.09998 9.40599C5.33619 9.40599 3.90621 7.95091 3.90621 6.156Z" fill="#BAC5CF"/>
</svg>
