<svg width="100" height="47" viewBox="0 0 100 47" fill="none" xmlns="http://www.w3.org/2000/svg">
<path d="M83.3333 0H62.5C57.5221 0 53.0539 2.28771 50 5.9149C50.0558 5.98117 50.1111 6.0479 50.166 6.11506H65.2778H80.5555H95.9993C92.9425 2.37207 88.4022 0 83.3333 0Z" fill="#174478"/>
<path d="M16.6667 46.5909H37.5C42.4779 46.5909 46.9461 44.3032 50 40.676C49.9442 40.6097 49.8889 40.543 49.834 40.4758H34.7222H19.4444H4.00069C7.05749 44.2188 11.5978 46.5909 16.6667 46.5909Z" fill="#174478"/>
<path fill-rule="evenodd" clip-rule="evenodd" d="M50 5.9149C49.9442 5.98117 49.8889 6.0479 49.834 6.11506H50.166C50.1111 6.0479 50.0558 5.98117 50 5.9149ZM19.4444 6.11506H4.00069C1.5065 9.16914 0 13.1359 0 17.4716V29.1193C0 33.455 1.5065 37.4218 4.00069 40.4758H19.4444C13.3079 40.4758 8.33333 35.261 8.33333 28.8281V17.7628C8.33333 11.3299 13.3079 6.11506 19.4444 6.11506ZM49.834 40.4758C49.8889 40.543 49.9442 40.6097 50 40.676C50.0558 40.6097 50.1111 40.543 50.166 40.4758H49.834ZM91.6667 28.8281C91.6667 35.261 86.692 40.4758 80.5555 40.4758H95.9993C98.4935 37.4218 100 33.455 100 29.1193V17.4716C100 13.1359 98.4935 9.16914 95.9993 6.11506H80.5555C86.692 6.11506 91.6667 11.3299 91.6667 17.7628V28.8281Z" fill="#174478"/>
<path fill-rule="evenodd" clip-rule="evenodd" d="M83.3333 46.5909H62.5L65.3607 40.4758H80.5555H95.9993C92.9425 44.2188 88.4022 46.5909 83.3333 46.5909Z" fill="#174478"/>
<path fill-rule="evenodd" clip-rule="evenodd" d="M16.6667 0H37.5L34.7222 6.11506H19.4444H4.00069C7.05749 2.37207 11.5978 0 16.6667 0Z" fill="#174478"/>
<path d="M50 5.9149C46.9461 2.28771 42.4779 0 37.5 0L34.7222 6.11506H49.834C49.8889 6.0479 49.9442 5.98117 50 5.9149Z" fill="#174478"/>
<path d="M65.3607 40.4758H65.2778H50.166C50.1111 40.543 50.0558 40.6097 50 40.676C53.0539 44.3032 57.5221 46.5909 62.5 46.5909L65.3607 40.4758Z" fill="#174478"/>
</svg>
