<svg width="240" height="43" viewBox="0 0 240 43" fill="none" xmlns="http://www.w3.org/2000/svg">
<path d="M75.8079 0H56.856C52.3276 0 48.2629 2.0845 45.4848 5.38951C45.5355 5.44989 45.5859 5.51069 45.6357 5.57188H59.3829H73.281H87.3301C84.5494 2.16137 80.419 0 75.8079 0Z" fill="#174478"/>
<path d="M15.1616 42.4524H34.1136C38.6419 42.4524 42.7066 40.3679 45.4848 37.0629C45.434 37.0025 45.3837 36.9418 45.3338 36.8806H31.5866H17.6885H3.63941C6.42017 40.2911 10.5505 42.4524 15.1616 42.4524Z" fill="#174478"/>
<path fill-rule="evenodd" clip-rule="evenodd" d="M45.4848 5.38951C45.434 5.44989 45.3837 5.51069 45.3338 5.57188H45.6357C45.5859 5.51069 45.5355 5.44989 45.4848 5.38951ZM17.6885 5.57188H3.63941C1.37046 8.35469 0 11.9691 0 15.9197V26.5328C0 30.4833 1.37046 34.0978 3.63941 36.8806H17.6885C12.1062 36.8806 7.58079 32.1289 7.58079 26.2674V16.185C7.58079 10.3235 12.1062 5.57188 17.6885 5.57188ZM45.3338 36.8806C45.3837 36.9418 45.434 37.0025 45.4848 37.0629C45.5355 37.0025 45.5859 36.9418 45.6357 36.8806H45.3338ZM83.3887 26.2674C83.3887 32.1289 78.8633 36.8806 73.281 36.8806H87.3301C89.5991 34.0978 90.9695 30.4833 90.9695 26.5328V15.9197C90.9695 11.9691 89.5991 8.35469 87.3301 5.57188H73.281C78.8633 5.57188 83.3887 10.3235 83.3887 16.185V26.2674Z" fill="#174478"/>
<path fill-rule="evenodd" clip-rule="evenodd" d="M75.8079 42.4524H56.856L59.4584 36.8806H73.281H87.3301C84.5494 40.2911 80.419 42.4524 75.8079 42.4524Z" fill="#174478"/>
<path fill-rule="evenodd" clip-rule="evenodd" d="M15.1616 0H34.1136L31.5866 5.57188H17.6885H3.63941C6.42017 2.16137 10.5505 0 15.1616 0Z" fill="#174478"/>
<path d="M45.4848 5.38951C42.7066 2.0845 38.6419 0 34.1136 0L31.5866 5.57188H45.3338C45.3837 5.51069 45.434 5.44989 45.4848 5.38951Z" fill="#174478"/>
<path d="M59.4584 36.8806H59.3829H45.6357C45.5859 36.9418 45.5355 37.0025 45.4848 37.0629C48.2629 40.3679 52.3276 42.4524 56.856 42.4524L59.4584 36.8806Z" fill="#174478"/>
<path d="M110.815 16.3745L115.968 1.09163H112.671L108.96 12.8376L105.226 1.09163H101.951L107.082 16.3745H110.815Z" fill="#174478"/>
<path d="M129.623 16.3745L126.239 10.6107C128.008 9.80288 129.187 8.05626 129.187 6.15682C129.187 4.75953 128.685 3.55873 127.702 2.57626C126.72 1.59379 125.519 1.09163 124.1 1.09163H117.987V16.3745H121V11.0692H123.292L126.37 16.3745H129.623ZM124.1 3.90805C125.235 3.90805 126.174 4.91235 126.174 6.15682C126.174 7.40128 125.235 8.42742 124.1 8.42742H121V3.90805H124.1Z" fill="#174478"/>
<path d="M139.279 8.16542V10.829H143.908C143.362 12.6411 141.79 13.7328 139.454 13.7328C137.882 13.7328 136.616 13.2743 135.655 12.3355C134.716 11.3967 134.236 10.1959 134.236 8.75491C134.236 7.29212 134.694 6.09132 135.633 5.15251C136.572 4.19188 137.773 3.71156 139.235 3.71156C141.048 3.71156 142.62 4.58486 143.34 5.82933L145.916 4.3447C144.606 2.18327 142.117 0.785976 139.257 0.785976C136.987 0.785976 135.087 1.55012 133.537 3.10024C132.009 4.65036 131.245 6.52797 131.245 8.75491C131.245 10.96 132.009 12.8376 133.559 14.3877C135.109 15.916 137.074 16.6802 139.432 16.6802C141.637 16.6802 143.449 16.0034 144.846 14.6497C146.244 13.2961 146.942 11.5277 146.942 9.34439V8.16542H139.279Z" fill="#174478"/>
<path d="M161.268 16.3745L157.884 10.6107C159.652 9.80288 160.831 8.05626 160.831 6.15682C160.831 4.75953 160.329 3.55873 159.347 2.57626C158.364 1.59379 157.163 1.09163 155.744 1.09163H149.631V16.3745H152.644V11.0692H154.937L158.015 16.3745H161.268ZM155.744 3.90805C156.88 3.90805 157.818 4.91235 157.818 6.15682C157.818 7.40128 156.88 8.42742 155.744 8.42742H152.644V3.90805H155.744Z" fill="#174478"/>
<path d="M166.601 10.0649H172.387V7.22662H166.601V3.97355H172.932V1.09163H163.588V16.3745H173.041V13.4926H166.601V10.0649Z" fill="#174478"/>
<path d="M189.045 16.3745L183.674 1.09163H179.941L174.592 16.3745H177.845L178.762 13.6236H184.853L185.77 16.3745H189.045ZM181.819 4.56303L183.915 10.8072H179.723L181.819 4.56303Z" fill="#174478"/>
<path d="M202.712 16.3745L199.328 10.6107C201.096 9.80288 202.275 8.05626 202.275 6.15682C202.275 4.75953 201.773 3.55873 200.79 2.57626C199.808 1.59379 198.607 1.09163 197.188 1.09163H191.075V16.3745H194.088V11.0692H196.38L199.459 16.3745H202.712ZM197.188 3.90805C198.323 3.90805 199.262 4.91235 199.262 6.15682C199.262 7.40128 198.323 8.42742 197.188 8.42742H194.088V3.90805H197.188Z" fill="#174478"/>
<path d="M102.978 25.896V36.0846H104.331V32.4458H106.674C107.621 32.4458 108.392 32.1256 109.018 31.4997C109.644 30.8738 109.964 30.0879 109.964 29.1709C109.964 28.2394 109.644 27.4679 109.018 26.8421C108.392 26.2162 107.621 25.896 106.674 25.896H102.978ZM104.331 31.1795V27.1623H106.674C107.795 27.1623 108.625 28.0065 108.625 29.1709C108.625 29.7385 108.436 30.2189 108.072 30.6119C107.708 30.9903 107.242 31.1795 106.674 31.1795H104.331Z" fill="#174478"/>
<path d="M117.938 35.1676C118.68 34.4253 119.059 33.5229 119.059 32.4458C119.059 31.3687 118.68 30.4663 117.938 29.724C117.196 28.9817 116.279 28.6178 115.216 28.6178C114.154 28.6178 113.237 28.9817 112.494 29.724C111.752 30.4663 111.388 31.3687 111.388 32.4458C111.388 33.5229 111.752 34.4253 112.494 35.1676C113.237 35.9099 114.154 36.2738 115.216 36.2738C116.279 36.2738 117.196 35.9099 117.938 35.1676ZM115.216 35.0366C114.503 35.0366 113.892 34.7892 113.397 34.2943C112.902 33.7994 112.654 33.1881 112.654 32.4458C112.654 31.7035 112.902 31.0922 113.397 30.5973C113.892 30.1024 114.503 29.855 115.216 29.855C115.944 29.855 116.555 30.1024 117.05 30.5973C117.545 31.0922 117.792 31.7035 117.792 32.4458C117.792 33.1881 117.545 33.7994 117.05 34.2943C116.555 34.7892 115.944 35.0366 115.216 35.0366Z" fill="#174478"/>
<path d="M127.603 34.3525L125.885 28.807H124.663L122.945 34.338L121.344 28.807H120.02L122.276 36.0846H123.571L125.274 30.6992L126.977 36.0846H128.272L130.529 28.807H129.204L127.603 34.3525Z" fill="#174478"/>
<path d="M139.182 33.028C139.211 32.8388 139.226 32.6496 139.226 32.4604C139.226 31.3978 138.891 30.4954 138.207 29.7531C137.537 28.9962 136.664 28.6178 135.601 28.6178C134.481 28.6178 133.564 28.9817 132.851 29.7094C132.137 30.4372 131.788 31.3542 131.788 32.4458C131.788 33.552 132.152 34.469 132.865 35.1967C133.593 35.9099 134.539 36.2738 135.689 36.2738C137.115 36.2738 138.178 35.7207 138.891 34.6291L137.814 34.0178C137.377 34.731 136.679 35.0803 135.718 35.0803C134.335 35.0803 133.331 34.3234 133.083 33.028H139.182ZM135.601 29.8113C136.766 29.8113 137.726 30.5391 137.945 31.9218H133.083C133.302 30.641 134.248 29.8113 135.601 29.8113Z" fill="#174478"/>
<path d="M142.311 28.807H141.045V36.0846H142.311V32.2275C142.311 31.4269 142.53 30.8593 142.981 30.4954C143.432 30.1315 143.956 29.9714 144.582 30.0005V28.676C143.49 28.676 142.734 29.1272 142.311 30.0296V28.807Z" fill="#174478"/>
<path d="M153.171 33.028C153.201 32.8388 153.215 32.6496 153.215 32.4604C153.215 31.3978 152.88 30.4954 152.196 29.7531C151.527 28.9962 150.653 28.6178 149.591 28.6178C148.47 28.6178 147.553 28.9817 146.84 29.7094C146.127 30.4372 145.777 31.3542 145.777 32.4458C145.777 33.552 146.141 34.469 146.854 35.1967C147.582 35.9099 148.528 36.2738 149.678 36.2738C151.105 36.2738 152.167 35.7207 152.88 34.6291L151.803 34.0178C151.367 34.731 150.668 35.0803 149.707 35.0803C148.325 35.0803 147.32 34.3234 147.073 33.028H153.171ZM149.591 29.8113C150.755 29.8113 151.716 30.5391 151.934 31.9218H147.073C147.291 30.641 148.237 29.8113 149.591 29.8113Z" fill="#174478"/>
<path d="M161.06 30.0588C160.435 29.0981 159.518 28.6178 158.309 28.6178C157.291 28.6178 156.417 28.9962 155.704 29.7385C154.991 30.4809 154.627 31.3833 154.627 32.4458C154.627 33.5083 154.991 34.4253 155.704 35.1676C156.417 35.9099 157.291 36.2738 158.309 36.2738C159.518 36.2738 160.435 35.7935 161.06 34.8328V36.0846H162.327V25.896H161.06V30.0588ZM158.47 35.0512C157.742 35.0512 157.131 34.8037 156.636 34.3089C156.141 33.7994 155.893 33.1881 155.893 32.4458C155.893 31.7035 156.141 31.0922 156.636 30.5973C157.131 30.0879 157.742 29.8404 158.47 29.8404C159.212 29.8404 159.823 30.0879 160.318 30.5973C160.813 31.0922 161.06 31.7035 161.06 32.4458C161.06 33.1881 160.813 33.7994 160.318 34.3089C159.823 34.8037 159.212 35.0512 158.47 35.0512Z" fill="#174478"/>
<path d="M172.629 28.6178C171.421 28.6178 170.504 29.0981 169.878 30.0588V25.896H168.612V36.0846H169.878V34.8328C170.504 35.7935 171.421 36.2738 172.629 36.2738C173.648 36.2738 174.521 35.9099 175.234 35.1676C175.948 34.4253 176.311 33.5083 176.311 32.4458C176.311 31.3833 175.948 30.4809 175.234 29.7385C174.521 28.9962 173.648 28.6178 172.629 28.6178ZM172.469 35.0512C171.727 35.0512 171.115 34.8037 170.62 34.3089C170.126 33.7994 169.878 33.1881 169.878 32.4458C169.878 31.7035 170.126 31.0922 170.62 30.5973C171.115 30.0879 171.727 29.8404 172.469 29.8404C173.197 29.8404 173.808 30.0879 174.303 30.5973C174.798 31.0922 175.045 31.7035 175.045 32.4458C175.045 33.1881 174.798 33.7994 174.303 34.3089C173.808 34.8037 173.197 35.0512 172.469 35.0512Z" fill="#174478"/>
<path d="M180.886 34.5126L178.411 28.807H177.058L180.231 36.0555L180.1 36.332C179.678 37.3945 179.023 37.8894 178.135 37.8166V38.9956C179.59 39.0975 180.74 38.1805 181.366 36.5358L184.335 28.807H182.982L180.886 34.5126Z" fill="#174478"/>
<path d="M194.621 31.034V32.2566H198.361C198.085 33.8431 196.775 34.9493 194.737 34.9493C193.544 34.9493 192.568 34.5708 191.812 33.814C191.069 33.0571 190.691 32.111 190.691 30.9903C190.691 29.8695 191.069 28.9235 191.812 28.1666C192.554 27.3952 193.515 27.0167 194.679 27.0167C196.091 27.0167 197.357 27.7445 197.939 28.8507L199.104 28.1666C198.682 27.4243 198.07 26.8421 197.284 26.3909C196.498 25.9397 195.64 25.7068 194.694 25.7068C193.165 25.7068 191.884 26.2162 190.866 27.2496C189.861 28.2685 189.352 29.5202 189.352 30.9903C189.352 32.4604 189.861 33.7121 190.866 34.7455C191.884 35.7644 193.165 36.2738 194.723 36.2738C196.222 36.2738 197.43 35.8371 198.347 34.9638C199.264 34.076 199.715 32.9698 199.715 31.6453V31.034H194.621Z" fill="#174478"/>
<path d="M207.736 35.1676C208.478 34.4253 208.857 33.5229 208.857 32.4458C208.857 31.3687 208.478 30.4663 207.736 29.724C206.994 28.9817 206.077 28.6178 205.014 28.6178C203.952 28.6178 203.035 28.9817 202.293 29.724C201.55 30.4663 201.186 31.3687 201.186 32.4458C201.186 33.5229 201.55 34.4253 202.293 35.1676C203.035 35.9099 203.952 36.2738 205.014 36.2738C206.077 36.2738 206.994 35.9099 207.736 35.1676ZM205.014 35.0366C204.301 35.0366 203.69 34.7892 203.195 34.2943C202.7 33.7994 202.453 33.1881 202.453 32.4458C202.453 31.7035 202.7 31.0922 203.195 30.5973C203.69 30.1024 204.301 29.855 205.014 29.855C205.742 29.855 206.353 30.1024 206.848 30.5973C207.343 31.0922 207.591 31.7035 207.591 32.4458C207.591 33.1881 207.343 33.7994 206.848 34.2943C206.353 34.7892 205.742 35.0366 205.014 35.0366Z" fill="#174478"/>
<path d="M216.856 35.1676C217.598 34.4253 217.977 33.5229 217.977 32.4458C217.977 31.3687 217.598 30.4663 216.856 29.724C216.114 28.9817 215.197 28.6178 214.134 28.6178C213.072 28.6178 212.155 28.9817 211.412 29.724C210.67 30.4663 210.306 31.3687 210.306 32.4458C210.306 33.5229 210.67 34.4253 211.412 35.1676C212.155 35.9099 213.072 36.2738 214.134 36.2738C215.197 36.2738 216.114 35.9099 216.856 35.1676ZM214.134 35.0366C213.421 35.0366 212.81 34.7892 212.315 34.2943C211.82 33.7994 211.572 33.1881 211.572 32.4458C211.572 31.7035 211.82 31.0922 212.315 30.5973C212.81 30.1024 213.421 29.855 214.134 29.855C214.862 29.855 215.473 30.1024 215.968 30.5973C216.463 31.0922 216.71 31.7035 216.71 32.4458C216.71 33.1881 216.463 33.7994 215.968 34.2943C215.473 34.7892 214.862 35.0366 214.134 35.0366Z" fill="#174478"/>
<path d="M225.874 30.0588C225.248 29.0981 224.331 28.6178 223.137 28.6178C222.104 28.6178 221.216 28.9817 220.503 29.724C219.79 30.4517 219.426 31.3396 219.426 32.4021C219.426 33.4647 219.79 34.3525 220.503 35.0948C221.216 35.8371 222.104 36.201 223.137 36.201C224.316 36.201 225.233 35.7207 225.874 34.7455V35.7789C225.874 37.1617 224.957 38.0059 223.443 38.0059C222.264 38.0059 221.463 37.5983 221.07 36.7832L219.964 37.4091C220.561 38.559 221.784 39.1848 223.414 39.1848C224.433 39.1848 225.306 38.8792 226.034 38.2824C226.762 37.6856 227.125 36.856 227.125 35.7789V28.807H225.874V30.0588ZM225.874 32.4021C225.874 33.1444 225.626 33.7558 225.131 34.2506C224.637 34.7455 224.025 34.9929 223.283 34.9929C222.541 34.9929 221.929 34.7455 221.434 34.2506C220.939 33.7558 220.692 33.1444 220.692 32.4021C220.692 31.6744 220.939 31.0631 221.434 30.5682C221.929 30.0733 222.541 29.8259 223.283 29.8259C224.025 29.8259 224.637 30.0733 225.131 30.5682C225.626 31.0631 225.874 31.6744 225.874 32.4021Z" fill="#174478"/>
<path d="M230.674 36.0846V25.4593H229.408V36.0846H230.674Z" fill="#174478"/>
<path d="M239.956 33.028C239.985 32.8388 240 32.6496 240 32.4604C240 31.3978 239.665 30.4954 238.981 29.7531C238.312 28.9962 237.438 28.6178 236.376 28.6178C235.255 28.6178 234.338 28.9817 233.625 29.7094C232.912 30.4372 232.562 31.3542 232.562 32.4458C232.562 33.552 232.926 34.469 233.639 35.1967C234.367 35.9099 235.313 36.2738 236.463 36.2738C237.889 36.2738 238.952 35.7207 239.665 34.6291L238.588 34.0178C238.152 34.731 237.453 35.0803 236.492 35.0803C235.109 35.0803 234.105 34.3234 233.858 33.028H239.956ZM236.376 29.8113C237.54 29.8113 238.501 30.5391 238.719 31.9218H233.858C234.076 30.641 235.022 29.8113 236.376 29.8113Z" fill="#174478"/>
</svg>
