<svg width="42" height="37" viewBox="0 0 42 37" fill="none" xmlns="http://www.w3.org/2000/svg">
<path d="M1.5 6.75H40.5C41.3285 6.75 42 6.07847 42 5.25V1.5C42 0.671531 41.3285 0 40.5 0H1.5C0.671531 0 0 0.671531 0 1.5V5.25C0 6.07847 0.671531 6.75 1.5 6.75ZM1.5 21.75H40.5C41.3285 21.75 42 21.0785 42 20.25V16.5C42 15.6715 41.3285 15 40.5 15H1.5C0.671531 15 0 15.6715 0 16.5V20.25C0 21.0785 0.671531 21.75 1.5 21.75ZM1.5 36.75H40.5C41.3285 36.75 42 36.0785 42 35.25V31.5C42 30.6715 41.3285 30 40.5 30H1.5C0.671531 30 0 30.6715 0 31.5V35.25C0 36.0785 0.671531 36.75 1.5 36.75Z" fill="#174478"/>
</svg>
