<svg width="12" height="12" viewBox="0 0 12 12" fill="none" xmlns="http://www.w3.org/2000/svg">
<path d="M6 0C9.31452 0 12 2.68548 12 6C12 9.31452 9.31452 12 6 12C2.68548 12 0 9.31452 0 6C0 2.68548 2.68548 0 6 0ZM8.75564 5.58871L5.47742 2.31048C5.25 2.08306 4.88226 2.08306 4.65726 2.31048L4.24597 2.72177C4.01855 2.94919 4.01855 3.31694 4.24597 3.54194L6.70403 6L4.24597 8.45806C4.01855 8.68548 4.01855 9.05323 4.24597 9.27823L4.65726 9.68952C4.88468 9.91694 5.25242 9.91694 5.47742 9.68952L8.75564 6.41129C8.98306 6.18387 8.98306 5.81613 8.75564 5.58871Z" fill="white"/>
</svg>
