<svg width="28" height="28" viewBox="0 0 28 28" fill="none" xmlns="http://www.w3.org/2000/svg">
<path d="M11.9049 1.82798L13.2923 0.44064C13.8797 -0.146795 14.8296 -0.146795 15.4108 0.44064L27.5594 12.583C28.1469 13.1705 28.1469 14.1204 27.5594 14.7015L15.4108 26.8502C14.8233 27.4376 13.8735 27.4376 13.2923 26.8502L11.9049 25.4628C11.3112 24.8692 11.3237 23.9005 11.9299 23.3193L19.4603 16.1451L1.49983 16.1451C0.668675 16.1451 1.03284e-06 15.4765 1.1055e-06 14.6453L1.28033e-06 12.6455C1.35299e-06 11.8144 0.668676 11.1457 1.49983 11.1457L19.4603 11.1457L11.9299 3.9715C11.3175 3.39031 11.305 2.42167 11.9049 1.82798Z" fill="#121212"/>
</svg>
