<svg width="13" height="14" viewBox="0 0 13 14" fill="none" xmlns="http://www.w3.org/2000/svg">
<path d="M12.2009 2.26626L7.00092 0.099594C6.84252 0.0338841 6.67272 6.10352e-05 6.50123 6.10352e-05C6.32975 6.10352e-05 6.15994 0.0338841 6.00154 0.099594L0.801545 2.26626C0.316753 2.46668 -0.00012207 2.94064 -0.00012207 3.46605C-0.00012207 8.84209 3.10092 12.5579 5.99884 13.7658C6.31842 13.8986 6.67863 13.8986 6.99821 13.7658C9.31925 12.799 12.9999 9.45959 12.9999 3.46605C12.9999 2.94064 12.683 2.46668 12.2009 2.26626ZM6.50259 12.0867L6.49988 1.76793L11.2638 3.75314C11.1745 7.85355 9.04029 10.8246 6.50259 12.0867Z" fill="#BAC5CF"/>
</svg>
