<svg width="13" height="13" viewBox="0 0 13 13" fill="none" xmlns="http://www.w3.org/2000/svg">
<path d="M-0.00012207 6.10352e-05C13.8588 6.10352e-05 10.6378 9.20743 10.6523 10.6293L12.9999 13.0001H12.2454L10.2026 10.934C9.07086 11.0559 6.59273 11.9351 3.98113 9.86033C1.36372 7.78555 1.50881 5.30162 -0.00012207 6.10352e-05ZM2.3126 1.33488C0.870413 0.652963 2.16171 1.60185 2.16171 1.60185C3.47332 2.5072 4.07689 3.74046 4.77912 5.08109C5.69318 6.82796 7.07153 9.13488 8.96349 9.94738C10.8497 10.7599 9.9559 10.3101 9.1376 9.70073C8.3193 9.08555 7.15858 7.17618 6.49698 5.92261C5.57711 4.18153 4.72689 2.48109 2.3126 1.33488Z" fill="#BAC5CF"/>
</svg>
