<svg width="32" height="32" viewBox="0 0 32 32" fill="none" xmlns="http://www.w3.org/2000/svg">
<path d="M16.0071 7.91404C11.5352 7.91404 7.92815 11.5211 7.92815 15.9929C7.92815 20.4648 11.5352 24.0718 16.0071 24.0718C20.4789 24.0718 24.086 20.4648 24.086 15.9929C24.086 11.5211 20.4789 7.91404 16.0071 7.91404ZM16.0071 21.2453C13.1172 21.2453 10.7547 18.8898 10.7547 15.9929C10.7547 13.0961 13.1102 10.7406 16.0071 10.7406C18.9039 10.7406 21.2594 13.0961 21.2594 15.9929C21.2594 18.8898 18.8969 21.2453 16.0071 21.2453ZM26.3008 7.58357C26.3008 8.63123 25.4571 9.46795 24.4164 9.46795C23.3688 9.46795 22.5321 8.62419 22.5321 7.58357C22.5321 6.54294 23.3758 5.69919 24.4164 5.69919C25.4571 5.69919 26.3008 6.54294 26.3008 7.58357ZM31.6516 9.49607C31.5321 6.97185 30.9555 4.73591 29.1063 2.89373C27.2641 1.05154 25.0282 0.474976 22.5039 0.348413C19.9024 0.200757 12.1047 0.200757 9.50315 0.348413C6.98596 0.467944 4.75002 1.04451 2.90081 2.88669C1.05159 4.72888 0.482056 6.96482 0.355493 9.48904C0.207837 12.0906 0.207837 19.8883 0.355493 22.4898C0.475024 25.014 1.05159 27.25 2.90081 29.0922C4.75002 30.9344 6.97893 31.5109 9.50315 31.6375C12.1047 31.7851 19.9024 31.7851 22.5039 31.6375C25.0282 31.5179 27.2641 30.9414 29.1063 29.0922C30.9485 27.25 31.525 25.014 31.6516 22.4898C31.7992 19.8883 31.7992 12.0976 31.6516 9.49607ZM28.2906 25.2812C27.7422 26.6593 26.6805 27.7211 25.2953 28.2765C23.2211 29.0992 18.2992 28.9093 16.0071 28.9093C13.7149 28.9093 8.78596 29.0922 6.71877 28.2765C5.34065 27.7281 4.27893 26.6664 3.72346 25.2812C2.90081 23.207 3.09065 18.2851 3.09065 15.9929C3.09065 13.7008 2.90784 8.77185 3.72346 6.70466C4.2719 5.32654 5.33362 4.26482 6.71877 3.70935C8.79299 2.88669 13.7149 3.07654 16.0071 3.07654C18.2992 3.07654 23.2282 2.89373 25.2953 3.70935C26.6735 4.25779 27.7352 5.31951 28.2906 6.70466C29.1133 8.77888 28.9235 13.7008 28.9235 15.9929C28.9235 18.2851 29.1133 23.214 28.2906 25.2812Z" fill="white"/>
</svg>
