<svg width="80" height="100" viewBox="0 0 80 100" fill="none" xmlns="http://www.w3.org/2000/svg">
<rect width="80" height="100" fill="#475DBD"/>
<path d="M33.0951 61.4628L31.7077 62.8501C31.1203 63.4376 30.1704 63.4376 29.5892 62.8501L17.4406 50.7077C16.8531 50.1203 16.8531 49.1704 17.4406 48.5892L29.5892 36.4406C30.1767 35.8531 31.1265 35.8531 31.7077 36.4406L33.0951 37.8279C33.6888 38.4216 33.6763 39.3902 33.0701 39.9714L25.5397 47.1456H43.5002C44.3313 47.1456 45 47.8143 45 48.6455V50.6452C45 51.4764 44.3313 52.1451 43.5002 52.1451H25.5397L33.0701 59.3193C33.6825 59.9005 33.695 60.8691 33.0951 61.4628Z" fill="white"/>
</svg>
