<svg width="128" height="16" viewBox="0 0 128 16" fill="none" xmlns="http://www.w3.org/2000/svg">
<path d="M7.14168 0.532715L5.18879 4.49233L0.819452 5.12934C0.035902 5.24299 -0.278116 6.20897 0.290107 6.76224L3.45122 9.8426L2.70356 14.194C2.56898 14.9805 3.39739 15.5697 4.09122 15.2018L8 13.1473L11.9088 15.2018C12.6026 15.5667 13.431 14.9805 13.2964 14.194L12.5488 9.8426L15.7099 6.76224C16.2781 6.20897 15.9641 5.24299 15.1805 5.12934L10.8112 4.49233L8.85832 0.532715C8.50841 -0.173079 7.49458 -0.18205 7.14168 0.532715Z" fill="#59D48E"/>
<path d="M35.1417 0.532715L33.1888 4.49233L28.8195 5.12934C28.0359 5.24299 27.7219 6.20897 28.2901 6.76224L31.4512 9.8426L30.7036 14.194C30.569 14.9805 31.3974 15.5697 32.0912 15.2018L36 13.1473L39.9088 15.2018C40.6026 15.5667 41.431 14.9805 41.2964 14.194L40.5488 9.8426L43.7099 6.76224C44.2781 6.20897 43.9641 5.24299 43.1805 5.12934L38.8112 4.49233L36.8583 0.532715C36.5084 -0.173079 35.4946 -0.18205 35.1417 0.532715Z" fill="#59D48E"/>
<path d="M63.1417 0.532715L61.1888 4.49233L56.8195 5.12934C56.0359 5.24299 55.7219 6.20897 56.2901 6.76224L59.4512 9.8426L58.7036 14.194C58.569 14.9805 59.3974 15.5697 60.0912 15.2018L64 13.1473L67.9088 15.2018C68.6026 15.5667 69.431 14.9805 69.2964 14.194L68.5488 9.8426L71.7099 6.76224C72.2781 6.20897 71.9641 5.24299 71.1805 5.12934L66.8112 4.49233L64.8583 0.532715C64.5084 -0.173079 63.4946 -0.18205 63.1417 0.532715Z" fill="#59D48E"/>
<path d="M91.1417 0.532715L89.1888 4.49233L84.8195 5.12934C84.0359 5.24299 83.7219 6.20897 84.2901 6.76224L87.4512 9.8426L86.7036 14.194C86.569 14.9805 87.3974 15.5697 88.0912 15.2018L92 13.1473L95.9088 15.2018C96.6026 15.5667 97.431 14.9805 97.2964 14.194L96.5488 9.8426L99.7099 6.76224C100.278 6.20897 99.9641 5.24299 99.1805 5.12934L94.8112 4.49233L92.8583 0.532715C92.5084 -0.173079 91.4946 -0.18205 91.1417 0.532715Z" fill="#59D48E"/>
<path d="M127.181 5.11964L122.811 4.48353L120.859 0.531636C120.683 0.178505 120.341 0 119.999 0C119.658 0 119.318 0.176117 119.142 0.531636L117.189 4.48323L112.82 5.11875C112.036 5.23218 111.722 6.19605 112.29 6.74828L115.451 9.82287L114.703 14.1655C114.597 14.7858 115.092 15.2834 115.646 15.2834C115.794 15.2834 115.945 15.2485 116.09 15.1715L119.999 13.1213L123.908 15.1721C124.053 15.2482 124.204 15.2828 124.35 15.2828C124.906 15.2828 125.402 14.787 125.296 14.1664L124.548 9.82347L127.71 6.74947C128.278 6.19724 127.964 5.23307 127.181 5.11964ZM123.547 8.79721L123.006 9.32318L123.133 10.0659L123.716 13.4524L120.667 11.8527L119.999 11.5023L120 2.03401L121.524 5.11725L121.857 5.79277L122.604 5.90142L126.014 6.39784L123.547 8.79721Z" fill="#59D48E"/>
</svg>
