<svg width="36" height="30" viewBox="0 0 36 30" fill="none" xmlns="http://www.w3.org/2000/svg">
<path d="M32.2994 7.6675C32.3223 7.98728 32.3223 8.30713 32.3223 8.62692C32.3223 18.3807 24.8985 29.6193 11.3299 29.6193C7.14973 29.6193 3.26651 28.4086 0 26.3071C0.59393 26.3756 1.16494 26.3985 1.78172 26.3985C5.2309 26.3985 8.40607 25.2335 10.9416 23.2462C7.69795 23.1777 4.97967 21.0533 4.04311 18.1294C4.5 18.1979 4.95682 18.2436 5.43656 18.2436C6.09898 18.2436 6.76146 18.1522 7.37817 17.9924C3.99748 17.3071 1.46187 14.3376 1.46187 10.7513V10.6599C2.44406 11.2082 3.58629 11.5508 4.79686 11.5964C2.80955 10.2715 1.50757 8.01014 1.50757 5.45174C1.50757 4.08121 1.87298 2.82487 2.51262 1.72842C6.14461 6.20556 11.604 9.12937 17.7258 9.44922C17.6116 8.90099 17.543 8.32999 17.543 7.75891C17.543 3.69288 20.8324 0.380737 24.9212 0.380737C27.0456 0.380737 28.9643 1.2716 30.3121 2.71068C31.9795 2.3909 33.5785 1.77412 34.9948 0.928964C34.4465 2.6422 33.2816 4.08128 31.7512 4.99492C33.2359 4.8351 34.675 4.42385 35.9999 3.85284C34.9949 5.31471 33.7385 6.61668 32.2994 7.6675Z" fill="white"/>
</svg>
